# xmcd
#
# Track frame offsets:
# 150
# 15225
# 36445
# 50939
# 68031
# 85336
# 102577
# 120888
# 132985
# 153955
#
# Disc length: 2302 seconds
#
#
# Revision: 0
# Processed by: cddbd v1.5.2PL0 Copyright (c) Steve Scherf et al.
# Submitted via: FreeRIP 2.951 
#
DISCID=7f08fc0a
DTITLE=Jimi Hendrix - Jimi Hendrix
DYEAR=1983
DGENRE=bLUES
TTITLE0=The Wind cries Marie
TTITLE1=Straight Ahead
TTITLE2=Bleeding Heart
TTITLE3=Drifting
TTITLE4=Night Bird Flying
TTITLE5=Red House
TTITLE6=All along the Watchtower
TTITLE7=She´s so fine
TTITLE8=My Friend
TTITLE9=3 little Bears
EXTD=AMIGA - DDR
EXTT0=
EXTT1=
EXTT2=
EXTT3=
EXTT4=
EXTT5=
EXTT6=
EXTT7=
EXTT8=
EXTT9=
PLAYORDER=
